<svg xmlns="http://www.w3.org/2000/svg" xmlns:xlink="http://www.w3.org/1999/xlink" viewBox="0,0,256,256" width="50px" height="50px"><g transform="translate(-15.36,-15.36) scale(1.12,1.12)"><g fill="#000000" fill-rule="nonzero" stroke="none" stroke-width="1" stroke-linecap="butt" stroke-linejoin="miter" stroke-miterlimit="10" stroke-dasharray="" stroke-dashoffset="0" font-family="none" font-weight="none" font-size="none" text-anchor="none" style="mix-blend-mode: normal"><g transform="scale(5.12,5.12)"><path d="M24.45117,3.00195c-0.23126,0.01122 -0.45147,0.10234 -0.62305,0.25781c0,0 -1.5438,1.3799 -3.04297,3.67578c-0.29731,-0.55058 -0.87454,-0.93555 -1.53516,-0.93555h-4.5c-0.95506,0 -1.75,0.79494 -1.75,1.75v4.5c0,0.95506 0.79494,1.75 1.75,1.75h3.3457c-0.05672,0.4906 -0.0957,0.98834 -0.0957,1.5c0,0.93662 0.18193,1.83025 0.49805,2.6582c-7.64475,2.66284 -13.49805,10.15289 -13.49805,22.8418v3l1.72461,-2.29883c0.36692,1.31275 0.8509,2.57495 1.46484,3.75977c0.25457,0.49026 0.85837,0.68133 1.34863,0.42676c0.49026,-0.25457 0.68133,-0.85837 0.42676,-1.34863c-0.77688,-1.49925 -1.33491,-3.12071 -1.6543,-4.82617c1.49089,-1.75777 3.11317,-3.39447 4.70117,-4.86133c-0.48494,1.33565 -0.83565,2.67782 -1.00391,4.02539l-0.31445,2.51367l1.94727,-1.62305c0,0 5.83556,-4.76758 12.35938,-4.76758c2.94444,0 4.60371,0.23929 6.08594,0.48633c1.48223,0.24704 2.83073,0.51367 4.91406,0.51367c2.25,0 3.87478,-0.91572 4.80078,-2.15039c0.32543,-0.43391 0.54786,-0.89615 0.72852,-1.36133c0.07553,0.32216 0.14288,0.648 0.20117,0.97656c0.00115,0.00657 0.00276,0.01296 0.00391,0.01953c0.03562,0.20205 0.06108,0.40698 0.08984,0.61133c0.03304,0.24021 0.06275,0.48136 0.08594,0.72461c0.01447,0.14692 0.03027,0.29342 0.04102,0.44141c0.02863,0.40939 0.04883,0.82149 0.04883,1.23828c0,2.90202 -0.71586,5.62716 -1.9668,8.03906c-0.25457,0.49026 -0.0635,1.09406 0.42676,1.34863c0.49026,0.25457 1.09406,0.0635 1.34863,-0.42676c1.39107,-2.6821 2.19141,-5.72896 2.19141,-8.96094c0,-0.56426 -0.02906,-1.12172 -0.07617,-1.67383c-0.01385,-0.16169 -0.03885,-0.31994 -0.05664,-0.48047c-0.04246,-0.38449 -0.08975,-0.7671 -0.1543,-1.14453c-0.03336,-0.19446 -0.07417,-0.38568 -0.11328,-0.57812c-0.07002,-0.34566 -0.14629,-0.68857 -0.23437,-1.02734c-0.04893,-0.18764 -0.1019,-0.3732 -0.15625,-0.55859c-0.10204,-0.34899 -0.21516,-0.69261 -0.33594,-1.0332c-0.05388,-0.15163 -0.10655,-0.30324 -0.16406,-0.45312c-0.15273,-0.39887 -0.31835,-0.78999 -0.49609,-1.17578c-0.04165,-0.09028 -0.08006,-0.18195 -0.12305,-0.27148c-0.20835,-0.43454 -0.43294,-0.85939 -0.67187,-1.27539c-0.02887,-0.05024 -0.05468,-0.10239 -0.08398,-0.15234c-0.54772,-0.93422 -1.17065,-1.81783 -1.86133,-2.64453c-0.01159,-0.0139 -0.02158,-0.0291 -0.0332,-0.04297c-0.06513,-0.08089 -0.09396,-0.11627 -0.15039,-0.18359c-0.07349,-0.08554 -0.14576,-0.17162 -0.2207,-0.25586c-0.06305,-0.06986 -0.20703,-0.23828 -0.20703,-0.23828l-0.00977,0.00977c-0.02212,-0.02407 -0.04612,-0.04635 -0.06836,-0.07031c-0.15834,-0.17027 -0.32401,-0.33352 -0.48828,-0.49805c-0.16736,-0.16814 -0.33452,-0.33599 -0.50781,-0.49805c-0.1438,-0.13395 -0.29165,-0.26296 -0.43945,-0.39258c-0.21679,-0.19095 -0.43701,-0.37723 -0.66211,-0.55859c-0.1108,-0.08882 -0.22123,-0.17723 -0.33398,-0.26367c-0.28972,-0.22329 -0.58643,-0.43747 -0.88867,-0.64453c-0.06589,-0.04488 -0.13081,-0.09068 -0.19727,-0.13477c-1.18577,-0.79121 -2.45792,-1.46122 -3.80859,-1.97852c0.34643,-0.86146 0.54297,-1.79849 0.54297,-2.78125c0,-4.13039 -3.36961,-7.5 -7.5,-7.5c-0.47222,0 -0.43608,-0.04598 -0.52734,-0.22852c-0.09127,-0.18253 -0.15616,-0.64539 -0.10352,-1.17187c0.1053,-1.05296 0.55859,-2.22852 0.55859,-2.22852c0.12586,-0.31589 0.08259,-0.67408 -0.11486,-0.95092c-0.19746,-0.27683 -0.52204,-0.43437 -0.8617,-0.41823zM23.01172,7.375c0.02603,0.4333 -0.04321,0.86084 0.17188,1.29102c0.37748,0.75497 1.28863,1.33398 2.31641,1.33398c3.04961,0 5.5,2.45039 5.5,5.5c0,3.04961 -2.45039,5.5 -5.5,5.5c-3.04961,0 -5.5,-2.45039 -5.5,-5.5c0,-0.7797 0.08593,-1.51585 0.22461,-2.21875c0.01936,-0.06949 0.03115,-0.14087 0.03516,-0.21289c0.50146,-2.31833 1.64996,-4.21213 2.75195,-5.69336zM15,8h4v2c-0.00137,0.0984 0.01179,0.19646 0.03906,0.29102c-0.21516,0.54658 -0.40476,1.11616 -0.5625,1.70898h-3.47656zM19.35156,19.7793c1.35779,1.94265 3.60783,3.2207 6.14844,3.2207c0.91745,0 1.79363,-0.1746 2.60742,-0.47852l0.47852,0.47852l-1.29297,1.29297c-0.26124,0.25082 -0.36648,0.62327 -0.27512,0.97371c0.09136,0.35044 0.36503,0.62411 0.71547,0.71547c0.35044,0.09136 0.72289,-0.01388 0.97371,-0.27512l1.29297,-1.29297l1.04297,1.04297l-1.80859,1.80664c-0.26123,0.25082 -0.36646,0.62327 -0.2751,0.9737c0.09136,0.35044 0.36503,0.62411 0.71546,0.71546c0.35044,0.09136 0.72288,-0.01387 0.9737,-0.27511l1.80859,-1.80664l0.83594,0.83594c0.25082,0.26124 0.62327,0.36648 0.97371,0.27512c0.35044,-0.09136 0.62411,-0.36503 0.71547,-0.71547c0.09136,-0.35044 -0.01388,-0.72289 -0.27512,-0.97371l-3.88281,-3.88281c-0.0637,-0.08891 -0.14156,-0.16676 -0.23047,-0.23047l-0.65234,-0.65234c0.56925,-0.42099 1.07527,-0.92077 1.50586,-1.48242c0.00465,0.00168 0.00903,0.00417 0.01367,0.00586c1.66484,0.60348 3.21116,1.45201 4.59766,2.50195c0.05572,0.04232 0.10887,0.08789 0.16406,0.13086c0.27386,0.21258 0.54218,0.43203 0.80273,0.66016c0.09011,0.07911 0.17716,0.16127 0.26563,0.24219c0.21765,0.19857 0.4313,0.40213 0.63867,0.61133c0.10719,0.10836 0.21203,0.21897 0.31641,0.33008c0.18145,0.19282 0.35861,0.38894 0.53125,0.58984c0.22646,0.26576 0.53934,0.65353 0.94727,1.29492c0.6615,1.04009 1.27539,2.40589 1.27539,3.58789c0,0.83333 -0.22678,1.88506 -0.80078,2.65039c-0.574,0.76533 -1.44922,1.34961 -3.19922,1.34961c-1.91667,0 -3.06817,-0.23337 -4.58594,-0.48633c-1.51777,-0.25296 -3.35851,-0.51367 -6.41406,-0.51367c-5.41392,0 -9.2286,2.27548 -11.42383,3.78906c0.48624,-1.73965 1.1639,-3.48777 2.27148,-5.25977l2.46289,-3.9375l-3.86523,2.57617c-2.51937,1.67958 -5.47531,4.65717 -8.15625,7.82617c-0.03694,-0.00467 -0.0741,-0.00728 -0.11133,-0.00781c0.83609,-10.26762 5.84808,-15.92692 12.23047,-18.03711zM20.5,40c-0.82843,0 -1.5,0.67157 -1.5,1.5c0,0.82843 0.67157,1.5 1.5,1.5c0.82843,0 1.5,-0.67157 1.5,-1.5c0,-0.82843 -0.67157,-1.5 -1.5,-1.5zM31.5,40c-0.82843,0 -1.5,0.67157 -1.5,1.5c0,0.82843 0.67157,1.5 1.5,1.5c0.82843,0 1.5,-0.67157 1.5,-1.5c0,-0.82843 -0.67157,-1.5 -1.5,-1.5z"></path></g></g></g></svg>